<svg width="48" height="41" viewBox="0 0 48 41" fill="none" xmlns="http://www.w3.org/2000/svg">
<path fill-rule="evenodd" clip-rule="evenodd" d="M23.9698 0.00207014C23.8074 0.0067061 23.6477 0.0480431 23.5028 0.123381L0.766656 11.942C0.511871 12.0262 0.296639 12.2028 0.162024 12.438C0.0266484 12.6613 -0.0265927 12.9263 0.0125713 13.1856V17.016C-0.0524557 17.4479 0.138446 17.8783 0.500462 18.1151H0.500841C0.880351 18.3704 1.37585 18.3588 1.744 18.0873L4.38502 16.7142V39.8777C4.38502 40.4892 4.87329 40.9853 5.47524 40.9853H18.9699C19.3164 41.0432 19.6693 40.9281 19.9176 40.6758C19.9256 40.6685 19.9332 40.6611 19.9408 40.6534V40.653V40.6526C20.1834 40.4011 20.2933 40.0473 20.2374 39.6996V26.7733H27.7607V39.6966V39.6962C27.7041 40.0478 27.817 40.4059 28.0642 40.6582C28.0722 40.6667 28.0798 40.6748 28.0877 40.6833H28.0889C28.3365 40.929 28.6848 41.0406 29.0263 40.9839H42.5297C43.1317 40.9835 43.6195 40.4878 43.6195 39.8763V16.7158L46.2594 18.088V18.0876C46.6077 18.343 47.0713 18.3666 47.4428 18.1479C47.8405 17.9215 48.0573 17.4676 47.9866 17.0098V13.1924C48.0284 12.9239 47.9717 12.6492 47.8272 12.4205C47.693 12.1957 47.4846 12.0268 47.239 11.9438L43.6195 10.0624V3.78835C43.6195 3.1764 43.1316 2.68076 42.5296 2.68076H36.8761C36.2741 2.68076 35.7859 3.17642 35.7859 3.78835V5.99047L24.4962 0.121715C24.3338 0.0371091 24.1528 -0.00461015 23.9703 0.000404098L23.9698 0.00207014ZM23.9991 2.35323L45.8055 13.6882V15.3649L24.4955 4.28802L24.4959 4.28841C24.1841 4.12615 23.8145 4.12615 23.5027 4.28841L2.1927 15.3653V13.6886L23.9991 2.35362L23.9991 2.35323ZM37.9659 4.89725H41.4386V8.9305L37.9659 7.12518V4.89725ZM23.9991 6.51832L41.4384 15.5839V38.7711H29.9403V25.6668H29.9407C29.9407 25.0553 29.4525 24.5596 28.8505 24.5592H19.1466C18.5447 24.5592 18.0564 25.0553 18.0564 25.6668V38.7711H6.56421V15.581L23.9987 6.51842L23.9991 6.51832Z" fill="white"/>
</svg>
