<svg width="65" height="44" viewBox="0 0 65 44" fill="none" xmlns="http://www.w3.org/2000/svg">
<path d="M63.6417 1.71076C62.8379 0.179591 60.8001 -0.455635 59.2647 0.35232L49.9815 5.24199C49.2178 5.64504 48.6528 6.31976 48.3976 7.14659C48.2436 7.64851 48.2266 8.16549 48.3152 8.66981C47.212 9.43963 46.2288 10.3469 46.0876 11.2053C46.0118 11.6653 46.0537 12.2115 46.1022 12.8461C46.1974 14.0402 46.3132 15.5271 45.5391 16.0441C45.3239 16.1877 45.0475 16.3586 44.7269 16.5484L41.529 13.4013C40.0694 11.9563 37.5696 12.0932 36.2659 13.6923L24.643 28.0192C23.7423 29.1328 23.8205 29.9347 24.0502 30.4092C24.183 30.6832 24.6072 31.3226 25.7293 31.3226C26.0014 31.3226 26.3033 31.2845 26.6277 31.2129L48.9076 26.1631C49.9981 25.9163 50.7594 25.2854 51.0024 24.4331C51.243 23.5809 50.9266 22.6444 50.129 21.8619L46.2308 18.0269C46.3933 17.9256 46.543 17.8305 46.6739 17.7444C48.4457 16.563 48.2621 14.2281 48.1401 12.6861C48.1062 12.2496 48.0685 11.7557 48.0935 11.589C48.1886 11.3634 48.6651 10.9458 49.3167 10.4816C49.9029 11.0193 50.6666 11.3484 51.4915 11.3484C52.0127 11.3484 52.5335 11.2175 52.9997 10.975L62.281 6.08532C63.0466 5.68227 63.612 5.00521 63.8672 4.18073C64.1271 3.35157 64.0447 2.47393 63.6422 1.7107L63.6417 1.71076ZM48.694 23.3229C49.0122 23.6351 49.0419 23.8441 49.0334 23.8776C49.0231 23.9115 48.8898 24.0716 48.4534 24.1709L26.3349 29.1826L37.8565 14.987C38.1626 14.6094 38.5802 14.4027 39.0294 14.4027C39.4197 14.4027 39.795 14.5651 40.0968 14.8604L42.8814 17.6026C40.7047 18.8051 38.1941 20.1084 38.1565 20.1277C37.6565 20.3871 37.4583 21.0053 37.7177 21.5049C37.899 21.8571 38.2578 22.0577 38.6269 22.0577C38.787 22.0577 38.9452 22.0195 39.0973 21.9437C39.264 21.8552 42.122 20.3763 44.4046 19.098L48.694 23.3229ZM61.9156 3.57064C61.8205 3.87669 61.6119 4.12341 61.3294 4.27314L52.0481 9.16474C51.4741 9.46843 50.734 9.22783 50.4345 8.66471C50.2866 8.38219 50.2551 8.05731 50.3521 7.75362C50.4448 7.44993 50.6515 7.20085 50.934 7.05112L60.2173 2.15952C60.3924 2.06865 60.5779 2.02251 60.7719 2.02251C61.2192 2.02251 61.6241 2.26734 61.8308 2.66145C61.981 2.94207 62.0107 3.26695 61.9156 3.57065L61.9156 3.57064Z" fill="#303E49"/>
<path d="M41.6619 34.921H36.1775V31.1453L34.1251 31.6096V34.9191H24.7954V33.2504C23.977 33.0753 23.2679 32.6849 22.7514 32.0987V34.919L13.4193 34.9186V30.0966H21.8756C21.8167 29.5227 21.8926 28.8291 22.2363 28.0527H20.9518V23.2308H25.8985L27.5564 21.1844H24.7972V16.3583H31.4714L33.1293 14.3119H1.0208C0.455313 14.3119 0 14.7696 0 15.3351V42.8101C0 43.3756 0.457664 43.8333 1.0208 43.8333H19.9293H19.9312H31.3049H31.3068H42.6871C43.2545 43.8333 43.7102 43.3756 43.7102 42.8101V29.4366L41.6639 29.9009V34.921L41.6619 34.921ZM13.419 16.3608H22.7531V21.1869H13.419V16.3608ZM18.9058 23.2333V28.0552H9.57174V23.2333H18.9058ZM2.04401 16.3608H11.3762V21.1869H2.04401V16.3608ZM7.52841 23.2333V28.0552H2.04593V23.2333H7.52841ZM7.52605 41.7911H2.04406V36.9649H7.52654L7.52605 41.7911ZM2.04406 34.921V30.099L8.55109 30.0986H11.3757V34.9205L2.04406 34.921ZM18.9047 41.7911H9.57059V36.9649H18.9047V41.7911ZM30.2827 41.7911H20.953V36.9649H30.2827V41.7911ZM41.663 41.7911H32.3289V36.9649H41.663V41.7911Z" fill="#303E49"/>
</svg>
