<svg width="48" height="44" viewBox="0 0 48 44" fill="none" xmlns="http://www.w3.org/2000/svg">
<path d="M19.5014 28.8431H26.7547L26.7349 22.9709L23.7253 17.0848H17.0362L14.8953 23.2887H19.4984L19.5014 28.8431ZM17.2075 21.6403L18.209 18.7348H22.7128L25.0831 23.373L25.0967 27.1961H21.1545V21.6403H17.2075Z" fill="white"/>
<path d="M28.6637 33.2718H28.2049V32.1064H30.2373V22.5841L25.7656 14.2374H24.4781V14.2377C24.7768 12.4515 25.9907 10.9533 27.6759 10.2907L35.4227 7.29028L34.8264 5.75187L27.0796 8.75232C25.9425 9.20017 24.9472 9.94565 24.1979 10.911C23.4483 11.876 22.9725 13.0253 22.8205 14.2377H18.5553L18.9728 12.0265V12.0261C19.3411 10.1047 20.6929 8.5184 22.5314 7.85008L36.3233 2.87394C36.2315 3.18661 36.1803 3.50987 36.1704 3.83587C36.1653 4.3554 36.2646 4.87086 36.4626 5.35113L43.462 22.8989H47.4182L43.9176 3.1901C43.8763 2.94125 43.8097 2.69754 43.7186 2.46235C43.3622 1.56805 42.6884 0.836813 41.8265 0.408452C40.9646 -0.0199358 39.9748 -0.115176 39.0469 0.140835C39.0271 0.140835 39.0073 0.157562 38.9858 0.163706L21.9711 6.29909C19.5844 7.16748 17.8302 9.22719 17.353 11.7218L16.8788 14.2375H14.7853L12.2573 21.6219H0.0234013V32.1063H4.55615V33.3543C2.75584 33.6253 1.21673 34.7927 0.4702 36.4534C-0.275988 38.114 -0.126813 40.0403 0.86616 41.5661C1.85911 43.0923 3.55971 44.0088 5.38047 43.9992H28.6633C30.1014 44.0235 31.4893 43.4691 32.5151 42.4608C33.5408 41.4521 34.1184 40.0742 34.1184 38.6357C34.1184 37.1973 33.5408 35.819 32.5151 34.8103C31.4893 33.8019 30.1014 33.2476 28.6633 33.2719L28.6637 33.2718ZM42.1883 3.07414C42.2367 3.20419 42.2722 3.33902 42.2937 3.47625L45.4485 21.2504H44.5784L37.9921 4.73896C37.8767 4.4635 37.8173 4.16754 37.8177 3.86887C37.83 3.38415 37.9969 2.9162 38.2942 2.53284C38.5912 2.14985 39.0028 1.87131 39.4691 1.73853H39.4906C40.0258 1.59311 40.5956 1.64876 41.0925 1.89453C41.5895 2.14064 41.9793 2.56016 42.1883 3.07388L42.1883 3.07414ZM26.5551 33.2718H6.20575V32.1064H26.5551V33.2718ZM1.66523 30.4581V23.2706H13.4404L15.9653 15.8829H24.7772L28.588 22.9969V30.455H1.66558L1.66523 30.4581ZM28.6637 42.3511H5.38084C4.38238 42.3713 3.41773 41.989 2.70467 41.2899C1.99125 40.5911 1.58946 39.6344 1.58946 38.6359C1.58946 37.6371 1.99123 36.6807 2.70467 35.9816C3.41775 35.2828 4.38238 34.9002 5.38084 34.9206H28.6637C29.6621 34.9002 30.6264 35.2828 31.3398 35.9816C32.0533 36.6807 32.4551 37.6371 32.4551 38.6359C32.4551 39.6344 32.0533 40.5911 31.3398 41.2899C30.6264 41.9889 29.6621 42.3712 28.6637 42.3511Z" fill="white"/>
<path d="M6.83317 36.1179C6.16481 36.1176 5.52414 36.3828 5.0513 36.8549C4.57853 37.3273 4.31297 37.968 4.31297 38.636C4.31262 39.3044 4.5782 39.9451 5.05062 40.4176C5.52304 40.8901 6.16373 41.1556 6.83214 41.1552C7.50015 41.1552 8.1409 40.8896 8.6133 40.4169C9.08538 39.9445 9.35061 39.3034 9.35027 38.635C9.34959 37.9677 9.08402 37.328 8.61194 36.8563C8.1402 36.3842 7.50049 36.119 6.83322 36.118L6.83317 36.1179ZM6.83317 39.5051V39.5055C6.4809 39.5058 6.1631 39.2942 6.02827 38.9692C5.8931 38.6442 5.96717 38.2698 6.21567 38.0206C6.46451 37.7715 6.83897 37.6967 7.16423 37.8312C7.48954 37.9657 7.70151 38.2831 7.70151 38.6351C7.70151 39.1153 7.31306 39.5045 6.83312 39.5055L6.83317 39.5051Z" fill="white"/>
<path d="M13.6815 36.1179C13.0135 36.1176 12.3725 36.3828 11.8997 36.8549C11.4273 37.3273 11.1617 37.968 11.1613 38.636C11.1613 39.3044 11.4266 39.9451 11.899 40.4176C12.3714 40.8901 13.0124 41.1556 13.6805 41.1552C14.3489 41.1552 14.9895 40.8896 15.4617 40.4169C15.9341 39.9445 16.1993 39.3034 16.1986 38.635C16.1983 37.9677 15.9331 37.3276 15.461 36.8556C14.9893 36.3839 14.3492 36.1186 13.6816 36.1179L13.6815 36.1179ZM13.6815 39.5051V39.5055C13.3296 39.5058 13.0118 39.2942 12.8766 38.9692C12.7415 38.6442 12.8155 38.2698 13.0644 38.0206C13.3129 37.7715 13.6873 37.6967 14.0127 37.8312C14.338 37.9657 14.5503 38.2831 14.5503 38.6351C14.5503 39.1153 14.1615 39.5045 13.6816 39.5055L13.6815 39.5051Z" fill="white"/>
<path d="M20.5308 36.1179C19.8628 36.1176 19.2217 36.3828 18.7489 36.8549C18.2765 37.3273 18.0109 37.968 18.0106 38.636C18.0106 39.3044 18.2758 39.9451 18.7482 40.4176C19.2206 40.8901 19.8617 41.1556 20.5297 41.1552C21.1981 41.1552 21.8388 40.8896 22.3109 40.4169C22.7833 39.9445 23.0482 39.3034 23.0479 38.635C23.0472 37.9677 22.7816 37.328 22.3099 36.8563C21.8378 36.3842 21.1981 36.119 20.5308 36.118L20.5308 36.1179ZM20.5308 39.5051V39.5055C20.1788 39.5058 19.861 39.2942 19.7259 38.9692C19.5907 38.6442 19.6648 38.2698 19.9136 38.0206C20.1621 37.7715 20.5366 37.6967 20.8619 37.8312C21.1872 37.9657 21.3995 38.2831 21.3995 38.6351C21.3995 39.1153 21.0107 39.5045 20.5308 39.5055L20.5308 39.5051Z" fill="white"/>
<path d="M27.3791 36.1179C26.7108 36.1179 26.0701 36.3835 25.598 36.8559C25.1255 37.3283 24.8603 37.969 24.8603 38.6371C24.8603 39.3054 25.1259 39.9458 25.5986 40.4182C26.0711 40.8903 26.7118 41.1555 27.3802 41.1552C28.0482 41.1552 28.6886 40.8893 29.161 40.4169C29.6331 39.9441 29.898 39.3034 29.8976 38.635C29.8973 37.9673 29.6317 37.3273 29.1593 36.8552C28.6872 36.3832 28.0469 36.1179 27.3792 36.1179L27.3791 36.1179ZM27.3791 39.5051V39.5055C27.0269 39.5058 26.7091 39.2942 26.5739 38.9692C26.4387 38.6442 26.5128 38.2698 26.7616 38.0206C27.0105 37.7715 27.3846 37.6967 27.7102 37.8312C28.0355 37.9657 28.2475 38.2831 28.2475 38.6351C28.2475 39.1153 27.859 39.5045 27.3791 39.5055L27.3791 39.5051Z" fill="white"/>
<path d="M43.3776 24.182L34.5858 34.9207H40.4891C42.3456 34.919 44.1261 34.1807 45.4392 32.8679C46.752 31.5551 47.4908 29.7749 47.4928 27.9183V24.1823L43.3776 24.182ZM45.8442 27.918H45.8445C45.8418 29.3367 45.2772 30.6966 44.274 31.6998C43.2708 32.703 41.9108 33.2676 40.4922 33.2704H38.0683L44.1593 25.829H45.8415L45.8442 27.918Z" fill="white"/>
<path d="M3.19272 24.9588H4.84106V28.5157H3.19272V24.9588Z" fill="white"/>
<path d="M6.31062 24.9588H7.95896V28.5157H6.31062V24.9588Z" fill="white"/>
<path d="M9.43025 24.9588H11.0786V28.5157H9.43025V24.9588Z" fill="white"/>
</svg>
