<svg width="55" height="48" viewBox="0 0 55 48" fill="none" xmlns="http://www.w3.org/2000/svg">
<path d="M54.035 38.7096H48.3429V33.2195C48.3429 32.6849 47.9106 32.2527 47.3773 32.2527L41.0134 32.2522V26.7621C41.0134 26.2284 40.5811 25.7965 40.047 25.7965H34.383V20.3043C34.383 19.7706 33.9507 19.3388 33.4166 19.3388H20.1564C19.6227 19.3388 19.19 19.771 19.19 20.3043V25.7965H13.526C12.9923 25.7965 12.5596 26.2288 12.5596 26.7621V32.2522H7.59639C7.06269 32.2522 6.63085 32.6845 6.63085 33.2191V38.7092L0.965539 38.7096C0.431834 38.7096 0 39.1419 0 39.6752V46.1321C0 46.6658 0.432249 47.0977 0.965539 47.0977H40.7463C40.751 47.0977 40.7548 47.0951 40.7591 47.0951C40.765 47.0951 40.7689 47.0977 40.7731 47.0977H54.0345C54.5682 47.0977 55 46.6654 55 46.1321V39.6752C55.0013 39.1415 54.569 38.7096 54.0357 38.7096H54.035ZM46.4105 38.7096H35.0819V34.185H46.4105V38.7096ZM27.4865 38.7096H21.8221V34.185H33.1496V38.7096H27.4865ZM39.0814 32.2518H27.7539V27.7272H39.0825V32.2518H39.0814ZM21.1221 21.2691H32.4508V25.7958H21.121V21.2691H21.1221ZM14.4921 27.7269H25.8208V32.2515H14.4921V27.7269ZM8.56117 34.1839H19.8898V38.7084H8.56117L8.56074 34.1839H8.56117ZM1.93028 40.6403H13.26V45.1662H1.93028V40.6403ZM15.1916 40.6403H26.5214V45.1662H15.1916V40.6403ZM39.7805 45.1662H28.453V40.6403H39.7827L39.7823 45.1662H39.7805ZM53.0691 45.1662H41.7394V40.6403H53.0691V45.1662Z" fill="white"/>
<path d="M23.7965 15.3322L29.3174 15.3206L29.4333 15.3189C30.9654 15.284 32.249 14.6147 32.9552 13.4783C33.6671 12.3354 33.6995 10.8724 33.0443 9.4644L32.6833 8.68685L33.9544 7.12959L33.9766 7.17605C34.1432 7.53499 34.5026 7.74301 34.8747 7.73449C35.0043 7.73065 35.1344 7.70209 35.2593 7.64454L41.2452 4.86263C42.5232 4.26966 43.0812 2.74695 42.4883 1.4673C41.9115 0.225525 40.3402 -0.354604 39.0916 0.226834L33.1049 3.00667C32.8722 3.11537 32.6919 3.31104 32.6036 3.55232C32.5158 3.79189 32.5273 4.05789 32.636 4.29064L33.0517 5.18413L31.7788 6.74009L31.5571 6.26223C30.7979 4.62704 29.4036 3.67042 27.828 3.70534C26.6638 3.73177 25.5448 4.31024 24.6777 5.33507L21.1089 9.54679C19.5645 11.3704 20.01 12.8855 20.2734 13.4524C20.5377 14.0181 21.4078 15.3366 23.7966 15.3324L23.7965 15.3322ZM39.9061 1.97915C40.2148 1.8355 40.5967 1.98043 40.7365 2.28181C40.8815 2.5947 40.7459 2.96685 40.4335 3.11222L35.3232 5.4862L34.7963 4.35312L39.9061 1.97915ZM22.583 10.7956L26.1519 6.58384C26.68 5.96062 27.2883 5.64985 27.8724 5.63664C28.6359 5.62001 29.3575 6.11024 29.806 7.07659L30.6957 8.99191C30.6974 8.99447 30.6974 8.9966 30.6995 8.99916L31.2942 10.2789C32.0764 11.9628 31.2192 13.3473 29.3912 13.3895H29.3149L23.7932 13.401C21.9099 13.4032 21.3668 12.2326 22.583 10.7956L22.583 10.7956Z" fill="white"/>
</svg>
