<svg width="42" height="36" viewBox="0 0 42 36" fill="none" xmlns="http://www.w3.org/2000/svg">
<mask id="path-1-inside-1_1_58" fill="white">
<path d="M39.1067 3.56375V0.719959C39.1067 0.323981 38.7808 0 38.3825 0H3.6231C3.22482 0 2.89895 0.323981 2.89895 0.719959V3.56375L0.00233172 35.2131C-0.0193284 35.4867 0.110955 35.7531 0.34986 35.8971C0.588765 36.0411 0.885866 36.034 1.12477 35.8756L1.55926 35.5876C2.53683 34.9396 4.11549 34.5581 5.79561 34.5581C7.47573 34.5581 9.0543 34.947 10.0248 35.5876L10.4593 35.8756C10.7057 36.034 11.017 36.034 11.263 35.8756L11.6975 35.5876C12.6751 34.9396 14.2537 34.5581 15.9338 34.5581C17.614 34.5581 19.1925 34.947 20.1631 35.5876L20.5976 35.8756C20.8439 36.034 21.1552 36.034 21.4012 35.8756L21.8357 35.5876C22.8133 34.9396 24.392 34.5581 26.0721 34.5581C27.7522 34.5581 29.3308 34.947 30.3013 35.5876L30.7358 35.8756C30.9821 36.034 31.2935 36.034 31.5395 35.8756L31.974 35.5876C32.9515 34.9396 34.5302 34.5581 36.2103 34.5581C37.8904 34.5581 39.469 34.947 40.4396 35.5876L40.874 35.8756C40.9972 35.9546 41.1346 35.998 41.2794 35.998C41.4097 35.998 41.5329 35.962 41.6486 35.8971C41.8875 35.7531 42.0252 35.4867 41.9961 35.2131L39.0995 3.56375L39.1067 3.56375ZM3.58669 11.9301L3.6882 11.8652C4.54262 11.2963 5.9402 10.9582 7.42468 10.9582C8.90915 10.9582 10.3067 11.2966 11.1611 11.8652L11.2045 11.8941L10.9148 18.2082C9.82145 17.6827 8.40195 17.3873 6.88122 17.3873C5.44003 17.3873 4.09319 17.6537 3.02152 18.1217L3.5863 11.9301L3.58669 11.9301ZM2.86253 19.8496L2.97827 19.7706C3.87638 19.1731 5.33181 18.8201 6.88158 18.8201C8.43136 18.8201 9.88678 19.173 10.7849 19.7706L10.8428 19.8066L10.5531 26.1132C9.41614 25.5588 7.93158 25.2493 6.34589 25.2493C4.75987 25.2493 3.42014 25.5443 2.30519 26.0557L2.86997 19.8496L2.86253 19.8496ZM7.42471 9.51843C6.05593 9.51843 4.76702 9.77041 3.74609 10.2169L4.28209 4.32027H11.5528L11.2777 10.2889C10.2276 9.79195 8.86626 9.51136 7.42507 9.51136L7.42471 9.51843ZM12.6532 11.9233L12.7402 11.8657C13.5946 11.2968 14.9921 10.9587 16.4766 10.9587C17.9611 10.9587 19.3587 11.2972 20.2131 11.8657L20.2784 11.9088V18.1795C19.1922 17.6685 17.7871 17.3805 16.2955 17.3805C14.804 17.3805 13.4422 17.6614 12.3634 18.1509L12.6531 11.9162L12.6532 11.9233ZM12.2911 19.8428L12.3997 19.7708C13.2978 19.1733 14.7533 18.8204 16.303 18.8204C17.8529 18.8204 19.3082 19.1733 20.2064 19.7708L20.2859 19.8213V26.092C19.1564 25.552 17.6861 25.2496 16.122 25.2496C14.558 25.2496 13.1313 25.5446 12.0089 26.0705L12.2986 19.8428L12.2911 19.8428ZM20.2785 10.2669C19.2355 9.7845 17.8959 9.51805 16.4766 9.51805C15.0574 9.51805 13.7681 9.7771 12.7327 10.238L13.0078 4.31987H20.2785L20.2785 10.2669ZM21.7268 11.9084L21.7921 11.8653C22.6465 11.2964 24.0441 10.9583 25.5286 10.9583C27.0131 10.9583 28.4106 11.2968 29.265 11.8653L29.352 11.9228L29.6417 18.1575C28.5626 17.668 27.1795 17.3871 25.7096 17.3871C24.2396 17.3871 22.8129 17.6751 21.7267 18.1861L21.7268 11.9084ZM21.7268 19.8279L21.8063 19.7774C22.7044 19.1799 24.1599 18.827 25.7096 18.827C27.2594 18.827 28.7148 19.1799 29.613 19.7774L29.7145 19.8494L30.0041 26.0771C28.8817 25.5516 27.4334 25.2562 25.891 25.2562C24.3486 25.2562 22.8567 25.5587 21.7272 26.0986V19.8279L21.7268 19.8279ZM29.2726 10.2381C28.2371 9.77715 26.9261 9.5181 25.5287 9.5181C24.1312 9.5181 22.7697 9.79162 21.7268 10.267V4.31997H28.9975L29.2726 10.2381ZM38.4184 11.9299L38.9832 18.1216C37.9115 17.6465 36.5644 17.3871 35.1235 17.3871C33.6028 17.3871 32.1836 17.6822 31.0899 18.208L30.8003 11.8939L30.8436 11.865C31.698 11.2961 33.0956 10.958 34.5801 10.958C36.0645 10.958 37.4621 11.2965 38.3165 11.865L38.418 11.9299L38.4184 11.9299ZM38.2591 10.2165C37.2381 9.77006 35.9489 9.51808 34.5804 9.51808C33.1321 9.51808 31.7779 9.79899 30.7279 10.2956L30.4527 4.32698H37.7234L38.2594 10.2162L38.2591 10.2165ZM31.1623 19.8138L31.2202 19.7778C32.1183 19.1803 33.5738 18.8273 35.1235 18.8273C36.6733 18.8273 38.1287 19.1802 39.0268 19.7778L39.1426 19.8568L39.7073 26.0414C38.592 25.5374 37.1799 25.2565 35.6667 25.2565C34.0806 25.2565 32.5961 25.566 31.4594 26.1205L31.1698 19.8138L31.1623 19.8138ZM4.34711 1.44041H37.6582V2.88033H4.34711V1.44041ZM5.79542 33.1186C4.21684 33.1186 2.73229 33.4136 1.57364 33.9395L2.13841 27.7623L2.2687 27.6759C3.20298 27.0568 4.7237 26.6824 6.33853 26.6824C7.95335 26.6824 9.47407 27.0494 10.4084 27.6759L10.4808 27.7189L10.1911 34.0185C9.01078 33.4355 7.46101 33.1115 5.8029 33.1115L5.79542 33.1186ZM15.9336 33.1186C14.3188 33.1186 12.8052 33.4355 11.6394 33.9825L11.929 27.7619L12.0522 27.6829C12.9865 27.0638 14.5072 26.6894 16.1221 26.6894C17.7369 26.6894 19.2576 27.0565 20.1919 27.6829L20.286 27.7478V34.0114C19.1127 33.4425 17.5775 33.1259 15.941 33.1259L15.9336 33.1186ZM26.0717 33.1186C24.4353 33.1186 22.9 33.4426 21.7268 34.0041V27.7405L21.8209 27.6755C22.7552 27.0565 24.2759 26.6821 25.8907 26.6821C27.5055 26.6821 29.0263 27.0491 29.9606 27.6755L30.0837 27.7546L30.3734 33.9752C29.2076 33.4208 27.694 33.1113 26.0792 33.1113L26.0717 33.1186ZM36.2099 33.1186C34.5515 33.1186 33.0019 33.4496 31.8217 34.0256L31.532 27.726L31.6044 27.6829C32.5387 27.0639 34.0595 26.6894 35.6743 26.6894C37.2891 26.6894 38.8098 27.0565 39.7441 27.6829L39.8744 27.7694L40.4392 33.9465C39.2805 33.421 37.796 33.1256 36.2174 33.1256L36.2099 33.1186Z"/>
</mask>
<path d="M39.1067 3.56375V0.719959C39.1067 0.323981 38.7808 0 38.3825 0H3.6231C3.22482 0 2.89895 0.323981 2.89895 0.719959V3.56375L0.00233172 35.2131C-0.0193284 35.4867 0.110955 35.7531 0.34986 35.8971C0.588765 36.0411 0.885866 36.034 1.12477 35.8756L1.55926 35.5876C2.53683 34.9396 4.11549 34.5581 5.79561 34.5581C7.47573 34.5581 9.0543 34.947 10.0248 35.5876L10.4593 35.8756C10.7057 36.034 11.017 36.034 11.263 35.8756L11.6975 35.5876C12.6751 34.9396 14.2537 34.5581 15.9338 34.5581C17.614 34.5581 19.1925 34.947 20.1631 35.5876L20.5976 35.8756C20.8439 36.034 21.1552 36.034 21.4012 35.8756L21.8357 35.5876C22.8133 34.9396 24.392 34.5581 26.0721 34.5581C27.7522 34.5581 29.3308 34.947 30.3013 35.5876L30.7358 35.8756C30.9821 36.034 31.2935 36.034 31.5395 35.8756L31.974 35.5876C32.9515 34.9396 34.5302 34.5581 36.2103 34.5581C37.8904 34.5581 39.469 34.947 40.4396 35.5876L40.874 35.8756C40.9972 35.9546 41.1346 35.998 41.2794 35.998C41.4097 35.998 41.5329 35.962 41.6486 35.8971C41.8875 35.7531 42.0252 35.4867 41.9961 35.2131L39.0995 3.56375L39.1067 3.56375ZM3.58669 11.9301L3.6882 11.8652C4.54262 11.2963 5.9402 10.9582 7.42468 10.9582C8.90915 10.9582 10.3067 11.2966 11.1611 11.8652L11.2045 11.8941L10.9148 18.2082C9.82145 17.6827 8.40195 17.3873 6.88122 17.3873C5.44003 17.3873 4.09319 17.6537 3.02152 18.1217L3.5863 11.9301L3.58669 11.9301ZM2.86253 19.8496L2.97827 19.7706C3.87638 19.1731 5.33181 18.8201 6.88158 18.8201C8.43136 18.8201 9.88678 19.173 10.7849 19.7706L10.8428 19.8066L10.5531 26.1132C9.41614 25.5588 7.93158 25.2493 6.34589 25.2493C4.75987 25.2493 3.42014 25.5443 2.30519 26.0557L2.86997 19.8496L2.86253 19.8496ZM7.42471 9.51843C6.05593 9.51843 4.76702 9.77041 3.74609 10.2169L4.28209 4.32027H11.5528L11.2777 10.2889C10.2276 9.79195 8.86626 9.51136 7.42507 9.51136L7.42471 9.51843ZM12.6532 11.9233L12.7402 11.8657C13.5946 11.2968 14.9921 10.9587 16.4766 10.9587C17.9611 10.9587 19.3587 11.2972 20.2131 11.8657L20.2784 11.9088V18.1795C19.1922 17.6685 17.7871 17.3805 16.2955 17.3805C14.804 17.3805 13.4422 17.6614 12.3634 18.1509L12.6531 11.9162L12.6532 11.9233ZM12.2911 19.8428L12.3997 19.7708C13.2978 19.1733 14.7533 18.8204 16.303 18.8204C17.8529 18.8204 19.3082 19.1733 20.2064 19.7708L20.2859 19.8213V26.092C19.1564 25.552 17.6861 25.2496 16.122 25.2496C14.558 25.2496 13.1313 25.5446 12.0089 26.0705L12.2986 19.8428L12.2911 19.8428ZM20.2785 10.2669C19.2355 9.7845 17.8959 9.51805 16.4766 9.51805C15.0574 9.51805 13.7681 9.7771 12.7327 10.238L13.0078 4.31987H20.2785L20.2785 10.2669ZM21.7268 11.9084L21.7921 11.8653C22.6465 11.2964 24.0441 10.9583 25.5286 10.9583C27.0131 10.9583 28.4106 11.2968 29.265 11.8653L29.352 11.9228L29.6417 18.1575C28.5626 17.668 27.1795 17.3871 25.7096 17.3871C24.2396 17.3871 22.8129 17.6751 21.7267 18.1861L21.7268 11.9084ZM21.7268 19.8279L21.8063 19.7774C22.7044 19.1799 24.1599 18.827 25.7096 18.827C27.2594 18.827 28.7148 19.1799 29.613 19.7774L29.7145 19.8494L30.0041 26.0771C28.8817 25.5516 27.4334 25.2562 25.891 25.2562C24.3486 25.2562 22.8567 25.5587 21.7272 26.0986V19.8279L21.7268 19.8279ZM29.2726 10.2381C28.2371 9.77715 26.9261 9.5181 25.5287 9.5181C24.1312 9.5181 22.7697 9.79162 21.7268 10.267V4.31997H28.9975L29.2726 10.2381ZM38.4184 11.9299L38.9832 18.1216C37.9115 17.6465 36.5644 17.3871 35.1235 17.3871C33.6028 17.3871 32.1836 17.6822 31.0899 18.208L30.8003 11.8939L30.8436 11.865C31.698 11.2961 33.0956 10.958 34.5801 10.958C36.0645 10.958 37.4621 11.2965 38.3165 11.865L38.418 11.9299L38.4184 11.9299ZM38.2591 10.2165C37.2381 9.77006 35.9489 9.51808 34.5804 9.51808C33.1321 9.51808 31.7779 9.79899 30.7279 10.2956L30.4527 4.32698H37.7234L38.2594 10.2162L38.2591 10.2165ZM31.1623 19.8138L31.2202 19.7778C32.1183 19.1803 33.5738 18.8273 35.1235 18.8273C36.6733 18.8273 38.1287 19.1802 39.0268 19.7778L39.1426 19.8568L39.7073 26.0414C38.592 25.5374 37.1799 25.2565 35.6667 25.2565C34.0806 25.2565 32.5961 25.566 31.4594 26.1205L31.1698 19.8138L31.1623 19.8138ZM4.34711 1.44041H37.6582V2.88033H4.34711V1.44041ZM5.79542 33.1186C4.21684 33.1186 2.73229 33.4136 1.57364 33.9395L2.13841 27.7623L2.2687 27.6759C3.20298 27.0568 4.7237 26.6824 6.33853 26.6824C7.95335 26.6824 9.47407 27.0494 10.4084 27.6759L10.4808 27.7189L10.1911 34.0185C9.01078 33.4355 7.46101 33.1115 5.8029 33.1115L5.79542 33.1186ZM15.9336 33.1186C14.3188 33.1186 12.8052 33.4355 11.6394 33.9825L11.929 27.7619L12.0522 27.6829C12.9865 27.0638 14.5072 26.6894 16.1221 26.6894C17.7369 26.6894 19.2576 27.0565 20.1919 27.6829L20.286 27.7478V34.0114C19.1127 33.4425 17.5775 33.1259 15.941 33.1259L15.9336 33.1186ZM26.0717 33.1186C24.4353 33.1186 22.9 33.4426 21.7268 34.0041V27.7405L21.8209 27.6755C22.7552 27.0565 24.2759 26.6821 25.8907 26.6821C27.5055 26.6821 29.0263 27.0491 29.9606 27.6755L30.0837 27.7546L30.3734 33.9752C29.2076 33.4208 27.694 33.1113 26.0792 33.1113L26.0717 33.1186ZM36.2099 33.1186C34.5515 33.1186 33.0019 33.4496 31.8217 34.0256L31.532 27.726L31.6044 27.6829C32.5387 27.0639 34.0595 26.6894 35.6743 26.6894C37.2891 26.6894 38.8098 27.0565 39.7441 27.6829L39.8744 27.7694L40.4392 33.9465C39.2805 33.421 37.796 33.1256 36.2174 33.1256L36.2099 33.1186Z" fill="white" stroke="white" stroke-width="3" mask="url(#path-1-inside-1_1_58)"/>
</svg>
